<svg xmlns="http://www.w3.org/2000/svg" xmlns:xlink="http://www.w3.org/1999/xlink" id="Layer_1" width="205" height="45" x="0" y="0" enable-background="new 0 0 205 45" version="1.1" viewBox="0 0 205 45" xml:space="preserve"><g id="Layer_2" display="none"><rect width="309.8" height="77.2" x="-38.2" y="-15.2" fill="#1F4AFF" display="inline"/></g><text enable-background="new" transform="matrix(1.0035 0 0 1 54.3213 25.3438)"><tspan x="0" y="0" font-family="Montserrat-Bold" font-size="29.505">D</tspan><tspan x="22.1" y="0" font-family="Montserrat-Bold" font-size="29.505">A</tspan><tspan x="44.1" y="0" font-family="Montserrat-Bold" font-size="29.505">R</tspan><tspan x="65.1" y="0" font-family="Montserrat-Bold" font-size="29.505">T</tspan></text><g><g><path fill="#205AE3" d="M26.8,28c-0.5,0.3-1.2-0.1-1.4-0.7c-2.6-5.9-5-11.7-7.5-17c-0.3-0.6-0.1-1.2,0.4-1.5 c0.1-0.1,0.3-0.1,0.4-0.2c0.5-0.2,1.1,0,1.4,0.6c2.5,5.4,5,11.2,7.6,16.9c0.3,0.6,0.1,1.3-0.4,1.6C27.1,27.8,27,27.9,26.8,28z"/><path fill="#002F9F" d="M24.2,29.9c-0.1,0.6-0.4,1-0.7,0.9c-2.7-1.2-5.3-2.7-7.8-4.5c-0.3-0.2-0.4-0.8-0.3-1.3 c0-0.1,0.1-0.3,0.1-0.4c0.1-0.5,0.4-0.8,0.7-0.7c2.5,1.6,5.1,2.9,7.8,4.1c0.3,0.1,0.4,0.7,0.3,1.4C24.3,29.5,24.2,29.7,24.2,29.9z"/><path fill="#002F9F" d="M33.6,20.4c-0.5,0.3-1.2,0.1-1.4-0.5C29.6,14.4,27,8.7,24.5,3.3c-0.3-0.6-0.1-1.3,0.4-1.6 c0.1-0.1,0.3-0.2,0.4-0.3c0.5-0.3,1.1-0.1,1.4,0.5c2.5,5.4,5.1,11.1,7.7,16.6c0.3,0.6,0.1,1.3-0.4,1.7 C33.9,20.2,33.8,20.3,33.6,20.4z"/><path fill="#0039BF" d="M30.2,24.1c-0.5,0.3-1.2,0-1.4-0.6c-2.6-5.7-5.1-11.5-7.6-16.8c-0.3-0.6-0.1-1.3,0.4-1.5 C21.7,5.1,21.9,5,22,4.9c0.5-0.3,1.1-0.1,1.4,0.5c2.5,5.4,5,11.1,7.7,16.7c0.3,0.6,0.1,1.3-0.4,1.7C30.5,23.9,30.4,24,30.2,24.1z"/><path fill="#0042DF" d="M22.3,33.4c-0.1,0.6-0.4,1-0.7,0.8c-2.7-1.5-5.2-3.3-7.5-5.3c-0.2-0.2-0.4-0.8-0.3-1.3 c0-0.1,0-0.3,0.1-0.4c0.1-0.5,0.4-0.7,0.6-0.5c2.4,1.9,4.9,3.5,7.6,4.9c0.3,0.1,0.4,0.8,0.3,1.4C22.4,33.1,22.3,33.3,22.3,33.4z"/><path fill="#002F9F" d="M31.4,41.9c0.5-0.3,0.8-0.9,0.6-1.2c-1.5-2.8-3.1-5.7-4.5-8.6c-0.2-0.3-0.7-0.3-1.2-0.1 c-0.1,0.1-0.3,0.1-0.4,0.2c-0.5,0.3-0.8,0.7-0.6,1c1.5,3,2.9,6,4.5,8.8c0.2,0.3,0.7,0.3,1.2,0C31.1,42.1,31.3,42,31.4,41.9z"/><path fill="#205AE3" d="M28.3,45.3c0.5-0.3,0.8-0.8,0.6-1.1c-1.5-2.9-3-5.9-4.5-9c-0.2-0.3-0.7-0.4-1.2-0.2 c-0.1,0.1-0.3,0.1-0.4,0.2c-0.5,0.2-0.8,0.6-0.6,0.9c1.4,3.1,2.9,6.2,4.4,9.2c0.2,0.3,0.7,0.4,1.2,0.1 C28,45.4,28.2,45.4,28.3,45.3z"/><path fill="#0039BF" d="M52.7,19.9c0.1-0.6-0.3-0.9-0.8-0.8c-4.9,1.4-10.3,1.8-15.7,1.3c-0.6,0-1.1,0.5-1.2,1.1 c0,0.2,0,0.4-0.1,0.6c-0.1,0.7,0.4,1.3,0.9,1.3c5.5,0.4,10.9-0.1,15.8-1.7c0.5-0.2,1-0.8,1-1.4C52.7,20.3,52.7,20.1,52.7,19.9z"/><path fill="#205AE3" d="M46.6,30.4c0.1-0.7-0.3-1.1-0.9-0.9c-5.2,1.2-10.9,1-16.4-0.2c-0.6-0.1-1.1,0.3-1.2,0.9 c0,0.2,0,0.4-0.1,0.5c-0.1,0.7,0.3,1.3,0.9,1.5c5.5,1.3,11.2,1.4,16.5,0.2c0.6-0.1,1.1-0.8,1.1-1.4C46.6,30.7,46.6,30.5,46.6,30.4 z"/><path fill="#0042DF" d="M49.6,25.3c0.1-0.6-0.3-1-0.9-0.9c-5.1,1.3-10.6,1.5-16.1,0.8c-0.6-0.1-1.1,0.4-1.2,1.1 c0,0.2,0,0.4-0.1,0.5c-0.1,0.7,0.3,1.3,0.9,1.4c5.5,0.8,11.1,0.6,16.2-0.9c0.5-0.2,1-0.8,1.1-1.4C49.5,25.7,49.5,25.5,49.6,25.3z"/></g></g><text fill="#FF4081" font-family="ArialNarrow" font-size="15.137" transform="matrix(1.25 0 0 1 56.1738 40.752)">Material Design Lite</text></svg>