<svg xmlns="http://www.w3.org/2000/svg" xmlns:xlink="http://www.w3.org/1999/xlink" id="Layer_1" width="36" height="36" x="0" y="0" enable-background="new 67.7 51.2 36 36" version="1.1" viewBox="67.7 51.2 36 36" xml:space="preserve"><path fill="#ffc107" d="M102.8,58.7c-1.3,0.6-2.7,1-4.1,1.1c1.5-0.9,2.6-2.3,3.2-4c-1.4,0.8-2.9,1.4-4.6,1.7	c-1.3-1.4-3.2-2.3-5.2-2.3c-4,0-7.2,3.2-7.2,7.2c0,0.6,0.1,1.1,0.2,1.6c-6-0.3-11.2-3.2-14.8-7.5c-0.6,1.1-1,2.3-1,3.6	c0,2.5,1.3,4.7,3.2,6c-1.2,0-2.3-0.4-3.2-0.9c0,0,0,0.1,0,0.1c0,3.5,2.5,6.4,5.8,7c-0.6,0.2-1.2,0.3-1.9,0.3c-0.5,0-0.9,0-1.3-0.1	c0.9,2.8,3.6,4.9,6.7,5c-2.5,1.9-5.5,3.1-8.9,3.1c-0.6,0-1.1,0-1.7-0.1c3.2,2,6.9,3.2,11,3.2c13.2,0,20.4-10.9,20.4-20.4	c0-0.3,0-0.6,0-0.9C100.6,61.4,101.8,60.1,102.8,58.7L102.8,58.7z"/></svg>